<?xml version="1.0"?>
<svg xmlns="http://www.w3.org/2000/svg" xmlns:xlink="http://www.w3.org/1999/xlink" xmlns:svgjs="http://svgjs.com/svgjs" version="1.1" width="512" height="512" x="0" y="0" viewBox="0 0 512 512" style="enable-background:new 0 0 512 512" xml:space="preserve" class=""><g>
<g>
	<g>
		<path d="M440.543,482.076c-0.059-2.385-0.206-3.133-11.642-61.494c-0.809-4.064-4.76-6.701-8.822-5.892    c-4.064,0.809-6.7,4.759-5.892,8.822c10.92,56.323,11.482,54.695,11.357,60.203c-0.203,8.471-4.2,13.28-15.836,13.28h-37.715    c-0.02,0-0.036-0.016-0.036-0.036v-81.631c0-4.127-3.18-7.74-7.304-7.846c-4.234-0.108-7.698,3.29-7.698,7.498v81.978    c0,0.02-0.016,0.036-0.036,0.036c-87.904,0-84.286,0.04-84.197-0.06c23.96-26.915,23.434-25.771,24.999-28.414    c2.534-4.281,3.221-9.526,1.754-14.358c-23.947-78.964-24.104-79.177-24.034-79.278c4.286-6.156,4.501-6.592,4.601-6.572    c7.231,1.474,14.363-1.707,17.947-6.895c26.826-38.607,26.227-37.896,26.327-37.862c54.035,19.085,50.721,17.928,51.098,18.038    c3.345,1.021,9.067,2.137,15.777,7.506v0.001c13.278,11.287,12.156,22.097,16.161,40.075c0.809,4.064,4.758,6.699,8.82,5.893    c4.064-0.808,6.701-4.758,5.893-8.82c-3.296-14.792-3.603-23.134-8.255-32.459c-0.009-0.018-0.031-0.026-0.049-0.017l-0.056-0.115    c0.14-0.072-7.121-15.737-24.695-23.3c-0.101-0.043-63.786-22.357-63.886-22.392c-19.525-16.55-20.088-16.942-20.088-17.043    c0-8.632-0.082-9.527,0.018-9.584c28.079-16.12,46.061-44.405,49.308-75.236c0.002-0.018,0.018-0.032,0.036-0.031    c22.81,1.035,38.694-20.769,29.139-39.856c-0.002-0.005-0.004-0.01-0.004-0.01v-61.152c0-44.212-24.039-59.599-31.394-63.273    c-0.004-0.002-0.008-0.005-0.011-0.008C324.89,9.265,280.251-4.781,237.467,1.438c-39.636,5.764-65.673,30.538-66.119,30.832    c-5.277,4.548-2.008,13.184,4.9,13.184c3.29,0,4.878-1.78,7.601-4.154c49.176-40.9,122.981-31.582,157.764,11.308    c0.842,1.037,1.867,1.802,3.119,2.27c0.972,0.39,23.798,9.996,23.798,50.181v47.292c0,0.025-0.025,0.042-0.048,0.032    c-4.122-1.738-8.655-2.641-13.504-2.51c-0.02,0.001-0.036-0.015-0.036-0.035v-24.5c0-6.224-4.689-11.369-10.905-11.969    c-12.606-1.216-19.67-9.429-23.377-16.105c-4.628-8.335-15.699-10.37-22.975-4.15c-33.448,28.591-71.962,30.044-98.379,26.234    c-19.948-2.88-38.497,10.699-41.74,30.507c-0.039,0.24-6.066-0.827-14.025,2.528c-0.023,0.01-0.048-0.007-0.048-0.032    c0.028-28.22-2.4-52.527,16.453-83.338c2.148-3.511,1.363-8.238-2.075-10.499c-3.551-2.334-8.302-1.262-10.515,2.332    c-12.497,20.295-18.636,44.111-18.757,61.752c-0.163,4.182-0.106,46.306-0.112,43.622c-9.552,19.081,6.311,40.895,29.137,39.858    c0.018-0.001,0.034,0.013,0.036,0.031c3.293,31.329,21.923,59.55,49.297,75.228c0.023,0.013,0.091,10.223,0.009,10.288    c-34.145,27.401-5.415,4.346-20.667,16.583l-54.088,19.046c-0.681,0.338-23.134,4.197-33.972,26.487l-0.05,0.101    c-4.788,9.592-4.308,12.723-26.216,122.733c-0.027,0.138-0.051,0.276-0.071,0.415C69.042,497.212,79.642,512,102.312,512h69.817    c4.127,0,7.74-3.18,7.846-7.304c0.108-4.234-3.291-7.698-7.498-7.698h-17.376c-0.155,0-0.036-81.809-0.036-81.667    c0-4.126-3.179-7.74-7.303-7.846c-4.234-0.109-7.699,3.29-7.699,7.498c-0.017,85.451,0.065,82.014-0.036,82.014H102.31    c-11.495,0-17.314-4.826-15.583-17.71v-0.003l21.795-109.462c0.844-6.463,5.154-14.951,12.183-20.617v-0.001    c7.343-5.931,13.455-6.72,16.322-7.743l50.002-17.642c0.1-0.035,25.588,36.881,26.349,37.881    c7.418,9.696,18.122,6.426,18.208,6.545c4.21,5.841,4.875,6.645,4.845,6.745c-4.76,15.693-19.603,64.627-24.016,79.176    c-1.803,5.948-0.348,12.52,3.8,17.15c23.662,26.47,23.097,25.681,22.927,25.681h-31.31c-4.127,0-7.74,3.18-7.846,7.304    c-0.108,4.234,3.291,7.698,7.498,7.698h202.229C430.115,511.999,440.978,500.082,440.543,482.076z M354.941,164.882    c8.651-0.457,16.394,5.37,16.394,13.1c0,7.808-7.824,13.554-16.394,13.102V164.882z M157.082,191.084    c-8.642,0.458-16.394-5.361-16.394-13.101c0-7.806,7.826-13.554,16.394-13.101V191.084z M283.696,453.827    c0.762,3.465,2.522,5.56,0.806,7.478l-4.868,5.434l-42.473-42.473l3.95-13.024L283.696,453.827z M256.718,294.327    c0.655-0.059,11.573,0.204,24.663-3.279c0.101-0.028,0.427-0.118,0.314-0.087v-0.001l0.119-0.033v0.001    c0.606-0.192,3.768-0.973,8.217-2.609v2.934l-34.375,33.463l-33.675-32.663v-3.736c11.847,4.338,25.074,6.255,34.741,6.01H256.718    z M267.692,359.764l-4.41,6.335H248.53l-4.775-6.625l11.888-13.106L267.692,359.764z M274.459,423.371l-28.41-28.409l4.205-13.862    h11.383L274.459,423.371z M311.314,315.933l-25.518,36.745c-0.715,0.861-1.633,1.003-2.126,1.008    c-1.731-0.046-0.692,0.772-17.602-18.166c1.249-1.216,28.256-27.507,31.815-30.972L311.314,315.933z M172.203,199.707    c-0.16-3.182-0.12-0.1-0.12-43.893c0-13.379,11.897-23.529,25.078-21.619c29.488,4.255,72.553,2.563,110.27-29.677    c0.001,0,0.109,0.028,0.11,0.028c7.244,13.048,18.678,21.285,32.397,23.421c0.056,72.22,0.543,74.379-2.025,85.865    c-5.957,24.241-19.709,42.697-40.353,54.513c-23.168,13.251-46.07,10.975-42.559,10.977c-14.755-0.149-26.003-4.427-25.081-4.134    C197.616,264.583,173.963,235.075,172.203,199.707z M229.722,352.633c-1.209,1.506-3.306,1.31-4.355,0.044l-25.232-36.333    L214,305.227l31.235,30.283C233.266,348.711,229.943,352.357,229.722,352.633z M255.945,493.181l-28.557-31.877    c-1.919-2.142,0.038-3.336,4.835-20.76l37.385,37.385L255.945,493.181z" fill="#ffffff" data-original="#000000"/>
	</g>
</g>
<g>
</g>
<g>
</g>
<g>
</g>
<g>
</g>
<g>
</g>
<g>
</g>
<g>
</g>
<g>
</g>
<g>
</g>
<g>
</g>
<g>
</g>
<g>
</g>
<g>
</g>
<g>
</g>
<g>
</g>
</g></svg>
