<?xml version="1.0"?>
<svg xmlns="http://www.w3.org/2000/svg" xmlns:xlink="http://www.w3.org/1999/xlink" xmlns:svgjs="http://svgjs.com/svgjs" version="1.1" width="512px" height="512px" x="0" y="0" viewBox="0 0 64 64" style="enable-background:new 0 0 512 512" xml:space="preserve" class=""><g><path d="m4 15.2c.6 0 1-.4 1-1v-2.2c0-.6-.4-1-1-1s-1 .4-1 1v2.2c0 .6.4 1 1 1z" fill="#ffffff" data-original="#000000" class=""/><path d="m62 61h-1v-7c0-.6-.4-1-1-1s-1 .4-1 1v7h-2v-53c0-.6.4-1 1-1s1 .4 1 1v42c0 .6.4 1 1 1s1-.4 1-1v-42c0-.8-.3-1.5-.8-2 .5-.5.8-1.2.8-2 0-.6-.4-1-1-1s-1 .4-1 1-.4 1-1 1-1-.4-1-1 .4-1 1-1 1-.4 1-1-.4-1-1-1c-1.7 0-3 1.3-3 3 0 .8.3 1.5.8 2-.5.5-.8 1.2-.8 2v3h-3c-3.5 0-6.4 2.6-6.9 6h-36.1v-9c0-.8-.3-1.5-.8-2 .5-.5.8-1.2.8-2 0-1.7-1.3-3-3-3s-3 1.3-3 3c0 .8.3 1.5.8 2-.5.5-.8 1.2-.8 2 0 .6.4 1 1 1s1-.4 1-1 .4-1 1-1 1 .4 1 1v53h-2v-43c0-.6-.4-1-1-1s-1 .4-1 1v43h-1c-.6 0-1 .4-1 1s.4 1 1 1h44c.6 0 1-.4 1-1s-.4-1-1-1h-37v-4h31.1c1.3 0 2.3-.8 2.7-2h12.2v6h-5c-.6 0-1 .4-1 1s.4 1 1 1h12c.6 0 1-.4 1-1s-.4-1-1-1zm-56-56c-.6 0-1-.4-1-1s.4-1 1-1 1 .4 1 1-.4 1-1 1zm49 48h-12v-2h12zm0-4h-12v-4h12zm0-6h-7.9c.5-2.3 2.5-4 4.9-4h3zm0-6h-3c-3.5 0-6.4 2.6-6.9 6h-7.4c-.6 0-1 .4-1 1s.4 1 1 1h3.3v9.1c0 .5-.4.9-.9.9h-31.1v-10h25.1c.6 0 1-.4 1-1s-.4-1-1-1h-25.1v-12.1h3c.6 0 1-.4 1-1s-.4-1-1-1h-3v-9.9h32v9c0 .5-.4.9-.9.9h-24.1c-.6 0-1 .4-1 1s.4 1 1 1h24.1c1.2 0 2.3-.8 2.7-1.9h12.2zm0-10h-12v-2h12zm0-4h-12v-4h12zm0-6h-7.9c.5-2.3 2.5-4 4.9-4h3z" fill="#ffffff" data-original="#000000" class=""/><path d="m14 51h-1v-1c0-.6-.4-1-1-1s-1 .4-1 1v2c0 .6.4 1 1 1h2c.6 0 1-.4 1-1s-.4-1-1-1z" fill="#ffffff" data-original="#000000" class=""/><path d="m20 51h-2c-.6 0-1 .4-1 1s.4 1 1 1h2c.6 0 1-.4 1-1s-.4-1-1-1z" fill="#ffffff" data-original="#000000" class=""/></g></svg>
